<?xml version="1.0" encoding="UTF-8"?>
<svg width="28px" height="33px" viewBox="0 0 28 33" version="1.1" xmlns="http://www.w3.org/2000/svg" xmlns:xlink="http://www.w3.org/1999/xlink">
    <!-- Generator: Sketch 46.2 (44496) - http://www.bohemiancoding.com/sketch -->
    <title>Combined Shape</title>
    <desc>Created with Sketch.</desc>
    <defs></defs>
    <g id="Page-1" stroke="none" stroke-width="1" fill="none" fill-rule="evenodd">
        <g id="mysite-copy-2" transform="translate(-60.000000, -80.000000)" fill="#FFFFFF">
            <path d="M60,97.3068329 L60,107.633621 C60,108.59784 60.2787983,109.541492 60.8028077,110.350895 C62.3035166,112.66894 65.3992285,113.331522 67.7172738,111.830813 L85.1975987,100.514003 C85.7897822,100.130621 86.2941359,99.6262677 86.6775172,99.0340842 C88.178226,96.7160389 87.515644,93.620327 85.1975987,92.1196181 L85.1975987,92.1196181 L67.7172738,80.8028077 C66.9078714,80.2787983 65.9642189,80 65,80 C62.2385763,80 60,82.2385763 60,85 L60,85 L60,95.3267878 L70.7128146,95.3267878 L70.7128146,93.137999 L70.7128146,93.137999 C70.7128146,92.5857143 71.1605299,92.137999 71.7128146,92.137999 C71.8948992,92.137999 72.0735282,92.1877146 72.229432,92.2817826 L77.4978383,95.460594 L77.4978383,95.460594 C77.9707135,95.7459139 78.1227572,96.3605525 77.8374373,96.8334278 C77.7535048,96.9725333 77.6369438,97.0890943 77.4978383,97.1730267 L72.229432,100.351838 C71.7565568,100.637158 71.1419181,100.485114 70.8565982,100.012239 C70.7625302,99.8563353 70.7128146,99.6777063 70.7128146,99.4956217 L70.7128146,97.3068329 L60,97.3068329 Z" id="Combined-Shape"></path>
        </g>
    </g>
</svg>